# xmcd
#
# Track frame offsets:
#	150
#	14121
#	32228
#	46624
#	59660
#	73508
#	88790
#	101748
#	115157
#	130497
#
# Disc length: 1934 seconds
#
# Revision: 0
# Processed by: cddbd v1.5.1PL2 Copyright (c) Steve Scherf et al.
# Submitted via: dBpowerAMP V4.0
#
DISCID=8f078c0a
DTITLE=Kim Archer Band - They Say I'm crazy
DYEAR=2005
DGENRE=Blues
TTITLE0=Kim Archer Band - fine
TTITLE1=Kim Archer Band - they say I'm crazy
TTITLE2=Kim Archer Band - me and you
TTITLE3=Kim Archer Band - my friend
TTITLE4=Kim Archer Band - it was
TTITLE5=Kim Archer Band - falling appart
TTITLE6=Kim Archer Band - finished with this game
TTITLE7=Kim Archer Band - unchain my heart
TTITLE8=Kim Archer Band - top of the world
TTITLE9=Kim Archer Band - only wancha bein' with me
EXTD=Kim Archer Band - they say I'm crazy, 2005 from Tacoma, WA
EXTT0=
EXTT1=
EXTT2=
EXTT3=
EXTT4=
EXTT5=
EXTT6=
EXTT7=
EXTT8=
EXTT9=
PLAYORDER=
